<svg width="50" height="50" viewBox="0 0 50 50" fill="none" xmlns="http://www.w3.org/2000/svg">
<path d="M25 45.8333C36.5059 45.8333 45.8333 36.5059 45.8333 25C45.8333 13.494 36.5059 4.16663 25 4.16663C13.494 4.16663 4.16663 13.494 4.16663 25C4.16663 36.5059 13.494 45.8333 25 45.8333Z" stroke="#351C42" stroke-linecap="round" stroke-linejoin="round"/>
<path d="M5.20837 26.0416L16.6667 30.2083L14.5834 37.5L16.6667 43.75" stroke="#351C42" stroke-linecap="round" stroke-linejoin="round"/>
<path d="M35.4166 42.7083L34.375 37.5L29.1666 35.4166V28.125L35.4166 26.0416L44.7916 27.0833" stroke="#351C42" stroke-linecap="round" stroke-linejoin="round"/>
<path d="M39.5833 11.4584L38.5417 14.5834L31.25 15.625V21.875L36.4583 19.7917H40.625L44.7917 21.875" stroke="#351C42" stroke-linecap="round" stroke-linejoin="round"/>
<path d="M5.20837 21.875L10.4167 17.7083L15.625 16.6667L19.7917 10.4167L17.7084 6.25" stroke="#351C42" stroke-linecap="round" stroke-linejoin="round"/>
</svg>
