<svg width="72" height="70" viewBox="0 0 72 70" fill="none" xmlns="http://www.w3.org/2000/svg">
<path d="M70.7177 47.9517C64.7903 45.7261 61.1681 39.762 59.7097 38.3549C58.2513 36.9479 56.0403 34.6856 56.0403 34.6856M56.0403 34.6856L53.9234 36.8025L40.7984 49.0808M56.0403 34.6856V34.6856C57.8798 32.2943 59.5349 28.7245 57.1165 26.921C56.5023 26.4629 55.6908 26.1431 54.629 26.0767M54.629 26.0767L49.3 31.4397M54.629 26.0767C54.8172 24.3361 54.2057 20.742 50.254 20.2904M50.254 20.2904L44.4 25.9002M50.254 20.2904C50.8656 18.2676 50.9032 14.2501 46.1613 14.363M46.1613 14.363L40.2 20.2904M46.1613 14.363C47.1962 12.0108 47.7419 7.58881 41.6452 8.71785M41.6452 8.71785L36 14.363M41.6452 8.71785C34.3065 5.21783 30.5901 6.13048 29.6492 7.02431M36 14.363C34.1653 13.9396 30.3266 11.8792 29.6492 7.02431M36 14.363C38.7097 19.6694 34.5887 20.902 32.1895 20.855M29.6492 7.02431C22.875 5.66948 23.6277 10.6937 24.8508 13.3752M1 47.2461C8.33871 44.7382 10.0728 40.3201 11.7258 38.7784C13.3788 37.2367 15.8185 34.6856 15.8185 34.6856M15.8185 34.6856V34.6856C13.907 32.592 12.2471 29.2705 14.4679 27.5084C15.2212 26.9107 16.2936 26.574 17.7944 26.7824M15.8185 34.6856C21.125 37.2823 22.1694 33.3213 22.0282 31.0163M17.7944 26.7824L22.0282 31.0163M17.7944 26.7824V26.7824C16.5066 25.2187 15.4165 23.1757 16.2832 21.3448C16.8591 20.1282 18.0231 19.2295 20.1936 19.6633M22.0282 31.0163C26.996 31.5808 27.6734 27.9584 27.3911 26.0767M27.3911 26.0767L20.6888 19.9215C20.5491 19.7932 20.3795 19.7005 20.1936 19.6633V19.6633M27.3911 26.0767C32.6976 26.0767 32.8011 22.5956 32.1895 20.855M20.1936 19.6633C19.4409 17.0968 19.3186 12.2461 24.8508 13.3752M24.8508 13.3752L32.1895 20.855M40.7984 49.0808H38.8956C34.5439 49.0808 30.2814 50.4644 26.9698 53.2876C22.8813 56.7731 18.3842 61.0798 17.0887 63.8993M40.7984 49.0808C40.7984 49.0808 50.3952 56.7342 54.629 63.8993" stroke="#351C42" stroke-linecap="round"/>
</svg>
