<svg width="10" height="14" viewBox="0 0 10 14" fill="none" xmlns="http://www.w3.org/2000/svg">
<path d="M5.35456 5.63696H8.55456L8.199 7.05918H5.35456V13.4592H3.93233V7.05918H1.08789V5.63696H3.93233V4.30576C3.93233 3.03785 4.0646 2.57776 4.31207 2.11411C4.55456 1.65602 4.92917 1.28141 5.38727 1.03891C5.85091 0.791446 6.311 0.65918 7.57891 0.65918C7.95011 0.65918 8.2758 0.694735 8.55456 0.765846V2.0814H7.57891C6.6374 2.0814 6.35082 2.13687 6.05856 2.29331C5.84238 2.40851 5.68167 2.56922 5.56647 2.7854C5.41002 3.07767 5.35456 3.36425 5.35456 4.30576V5.63696Z" fill="#B29FBC" stroke="#B29FBC" stroke-width="0.8"/>
</svg>
