<svg width="51" height="50" viewBox="0 0 51 50" fill="none" xmlns="http://www.w3.org/2000/svg">
<path d="M3.29083 18.2915V45.9233C3.29083 46.4756 3.73855 46.9233 4.29083 46.9233H47.2055C47.7578 46.9233 48.2055 46.4756 48.2055 45.9233V18.2915M3.29083 18.2915H48.2055M3.29083 18.2915H2.38464C1.83236 18.2915 1.38464 17.8438 1.38464 17.2915V12.1036C1.38464 11.5513 1.83236 11.1036 2.38464 11.1036H15.6811M48.2055 18.2915H49.2308C49.7831 18.2915 50.2308 17.8438 50.2308 17.2915V12.1036C50.2308 11.5513 49.7831 11.1036 49.2308 11.1036H35.8152M15.6811 11.1036V4.07715C15.6811 3.52486 16.1288 3.07715 16.6811 3.07715H34.8152C35.3675 3.07715 35.8152 3.52486 35.8152 4.07715V11.1036M15.6811 11.1036H35.8152" stroke="white" stroke-linecap="round"/>
<path d="M35.5769 27.6042V37.4907C35.5769 40.2521 33.3383 42.4907 30.5769 42.4907H20.8002C18.0387 42.4907 15.8002 40.2522 15.8002 37.4907V27.6042C15.8002 24.8428 18.0387 22.6042 20.8002 22.6042H30.5769C33.3383 22.6042 35.5769 24.8428 35.5769 27.6042Z" stroke="white" stroke-linecap="round" stroke-linejoin="round"/>
<path d="M27.8353 39.1761H23.5418C23.2104 39.1761 22.9418 38.9075 22.9418 38.5761V35.9093C22.9418 35.5779 22.6732 35.3093 22.3418 35.3093H19.6963C19.3649 35.3093 19.0963 35.0407 19.0963 34.7093V30.3853C19.0963 30.0539 19.3649 29.7853 19.6963 29.7853H22.3418C22.6732 29.7853 22.9418 29.5166 22.9418 29.1853V26.5185C22.9418 26.1871 23.2104 25.9185 23.5418 25.9185H27.8353C28.1667 25.9185 28.4353 26.1871 28.4353 26.5185V29.1853C28.4353 29.5166 28.704 29.7853 29.0353 29.7853H31.6808C32.0122 29.7853 32.2808 30.0539 32.2808 30.3853V34.7093C32.2808 35.0407 32.0122 35.3093 31.6808 35.3093H29.0353C28.704 35.3093 28.4353 35.5779 28.4353 35.9093V38.5761C28.4353 38.9075 28.1667 39.1761 27.8353 39.1761Z" stroke="white"/>
</svg>
