<svg width="70" height="70" viewBox="0 0 70 70" fill="none" xmlns="http://www.w3.org/2000/svg">
<path d="M41.6913 56.9314H27.7487M41.6913 56.9314C42.2213 59.3363 40.5691 61.3561 39.3209 61.8806C39.2224 61.9219 39.1162 61.9371 39.0094 61.9371H29.7614C29.6802 61.9371 29.5982 61.9281 29.5207 61.9041C27.6194 61.3156 27.5428 58.3622 27.7487 56.9314M41.6913 56.9314V52.5514M27.7487 56.9314L27.7488 47.9199C27.7488 47.3676 28.1965 46.9199 28.7488 46.9199H40.6913C41.2436 46.9199 41.6913 47.3676 41.6913 47.9199V52.5514M41.6913 52.5514H35.3894" stroke="#351C42"/>
<path d="M37.2019 46.9207H40.0236M56.1074 46.9207H54.9787M52.157 46.9207V37.7478C52.157 37.1955 52.6047 36.7478 53.157 36.7478H53.9787C54.531 36.7478 54.9787 37.1955 54.9787 37.7478V46.9207M52.157 46.9207H54.9787M52.157 46.9207H48.7709M48.7709 46.9207V41.1388C48.7709 40.5865 48.3232 40.1388 47.7709 40.1388H46.9492C46.3969 40.1388 45.9492 40.5865 45.9492 41.1388V46.9207M48.7709 46.9207H45.9492M45.9492 46.9207H43.4096H42.8453M42.8453 46.9207V42.8342C42.8453 42.282 42.3976 41.8342 41.8453 41.8342H41.0236C40.4713 41.8342 40.0236 42.282 40.0236 42.8342V46.9207M42.8453 46.9207H40.0236M37.4841 39.8562C40.588 40.1388 49.8996 38.7258 54.4144 29.4006M54.4144 29.4006L50.1818 30.8135M54.4144 29.4006L55.543 33.3568" stroke="#351C42"/>
<path d="M51.6966 27.7316C51.8226 19.7805 43.2573 14.6958 35.942 14.6958C28.6267 14.6958 20.0614 19.7805 20.1874 27.7316C20.2488 31.6081 21.4999 34.2495 24.1261 36.8566C26.5778 39.2906 27.6094 41.4064 27.7354 45.9194C27.7508 46.4715 28.1964 46.9202 28.7487 46.9202H35.942H44.1334" stroke="#351C42" stroke-linecap="round" stroke-linejoin="round"/>
<path d="M25.9407 22.6971C26.7081 21.3002 29.1638 18.5063 32.8473 18.5063M24.7896 24.602C24.2766 24.9463 24.0222 25.8066 24.0222 26.8879" stroke="#351C42" stroke-linecap="round"/>
<path d="M17.8831 28.0296H14.8135M20.1853 20.029L17.1157 18.1241M25.9408 13.9333L24.406 11.2665M33.9985 12.4094V8.59961" stroke="#351C42" stroke-linecap="round"/>
<path d="M68 35C68 28.4732 66.0646 22.093 62.4385 16.6662C58.8124 11.2394 53.6585 7.00967 47.6286 4.51198C41.5986 2.01428 34.9634 1.36077 28.562 2.63409C22.1606 3.9074 16.2806 7.05034 11.6655 11.6655C7.05034 16.2806 3.9074 22.1606 2.63409 28.562C1.36077 34.9634 2.01428 41.5986 4.51198 47.6286C7.00967 53.6585 11.2394 58.8124 16.6662 62.4385C22.093 66.0646 28.4732 68 35 68V67.01C28.669 67.01 22.4802 65.1326 17.2162 61.6153C11.9522 58.098 7.84938 53.0988 5.42661 47.2497C3.00385 41.4006 2.36995 34.9645 3.60506 28.7552C4.84017 22.5458 7.88883 16.8422 12.3655 12.3655C16.8422 7.88883 22.5458 4.84017 28.7552 3.60506C34.9645 2.36995 41.4006 3.00385 47.2497 5.42661C53.0988 7.84938 58.098 11.9522 61.6153 17.2162C65.1326 22.4802 67.01 28.669 67.01 35H68Z" fill="#351C42"/>
</svg>
