<svg width="14" height="14" viewBox="0 0 14 14" fill="none" xmlns="http://www.w3.org/2000/svg">
<path fill-rule="evenodd" clip-rule="evenodd" d="M9.78144 2.98007C9.65317 3.06577 9.55316 3.18759 9.49414 3.33011C9.44617 3.44596 9.427 3.57125 9.43765 3.69535C9.4401 3.72393 9.44414 3.75245 9.44977 3.78078C9.47984 3.93208 9.55411 4.07107 9.66323 4.18016C9.77227 4.28897 9.91149 4.36357 10.0626 4.39362C10.0914 4.39935 10.1204 4.40343 10.1495 4.40587C10.2731 4.41625 10.3979 4.39703 10.5133 4.34923C10.6558 4.2902 10.7776 4.19023 10.8633 4.06195C10.9027 4.00294 10.9337 3.93916 10.9557 3.87246C10.9814 3.79419 10.9948 3.7119 10.9948 3.62861C10.9948 3.61614 10.9945 3.60371 10.9939 3.59131C10.9935 3.58236 10.9929 3.57342 10.9921 3.56451C10.9783 3.39697 10.9107 3.23815 10.7992 3.11199C10.7886 3.10005 10.7777 3.0884 10.7663 3.07706C10.764 3.07469 10.7616 3.07234 10.7592 3.07001C10.6228 2.93713 10.4428 2.85893 10.2533 2.84956C10.2517 2.84948 10.2501 2.84941 10.2485 2.84934C10.2373 2.84885 10.2261 2.84861 10.2148 2.84861C10.1275 2.84861 10.0414 2.86324 9.95985 2.89144C9.89717 2.91312 9.83718 2.94282 9.78144 2.98007ZM9.95605 1.86751C10.0429 1.88335 10.1292 1.90235 10.2148 1.92447C10.3289 1.95398 10.4417 1.98905 10.5528 2.02961C10.8409 2.13656 11.1003 2.30881 11.3106 2.53272C11.3106 2.53272 11.3106 2.53273 11.3106 2.53272C11.3158 2.53831 11.3211 2.54395 11.3263 2.54961C11.5393 2.74927 11.7057 2.99339 11.8138 3.26461C11.8574 3.3841 11.8947 3.50561 11.9255 3.62861C11.9457 3.70951 11.9632 3.79105 11.9779 3.8731C12.0148 4.07952 12.0339 4.28913 12.0348 4.49961C12.0673 5.14961 12.0738 5.39011 12.0738 7.09961C12.0738 8.80911 12.0673 9.04961 12.0348 9.69961C12.03 10.1122 11.9553 10.521 11.8138 10.9086C11.7099 11.1915 11.5433 11.4471 11.3263 11.6561C11.1154 11.871 10.8604 12.0373 10.5788 12.1436C10.1912 12.2851 9.78239 12.3598 9.36977 12.3646C8.71977 12.3971 8.47927 12.4036 6.76977 12.4036C5.06027 12.4036 4.81977 12.4036 4.16977 12.3646C3.74136 12.3727 3.31476 12.3066 2.90877 12.1696C2.63954 12.0579 2.39616 11.8919 2.19377 11.6821C1.97804 11.4733 1.81342 11.2175 1.71277 10.9346C1.55408 10.5415 1.46606 10.1234 1.45277 9.69961C1.45277 9.45168 1.4471 9.26333 1.44008 9.03031C1.4287 8.65242 1.41377 8.15706 1.41377 7.09961C1.41377 5.39012 1.41377 5.14961 1.45277 4.49961C1.45569 4.07779 1.53269 3.65977 1.68027 3.26461C1.79471 2.99025 1.97035 2.74568 2.19377 2.54961C2.39125 2.32612 2.63532 2.14862 2.90877 2.02961C3.30498 1.88664 3.72257 1.81191 4.14377 1.80861C4.3917 1.80861 4.58005 1.80294 4.81307 1.79592C5.19096 1.78453 5.68633 1.76961 6.74377 1.76961C8.45326 1.76961 8.69378 1.76961 9.34377 1.80861C9.54954 1.81097 9.75435 1.83073 9.95605 1.86751ZM12.9058 11.3571C12.7422 11.7914 12.4847 12.1843 12.1518 12.5076C11.8299 12.8408 11.4365 13.0964 11.0013 13.2551C10.496 13.4461 9.96179 13.5494 9.42177 13.5606C8.73277 13.5996 8.51177 13.5996 6.74377 13.5996C4.97577 13.5996 4.75477 13.5996 4.06577 13.5606C3.52572 13.5494 2.99155 13.4461 2.48627 13.2551C2.05187 13.0948 1.65878 12.8394 1.33577 12.5076C1.0026 12.1857 0.746987 11.7923 0.588274 11.3571C0.397279 10.8518 0.29396 10.3176 0.282774 9.77761C0.243774 9.08861 0.243774 8.86761 0.243774 7.09961C0.243774 5.33161 0.243774 5.11061 0.282774 4.42161C0.29396 3.88155 0.397279 3.34738 0.588274 2.84211C0.746987 2.4069 1.0026 2.01347 1.33577 1.69161C1.65878 1.35982 2.05187 1.10443 2.48627 0.944109C2.99155 0.753114 3.52572 0.649795 4.06577 0.638609C4.75477 0.599609 4.97577 0.599609 6.74377 0.599609C8.51177 0.599609 8.73277 0.599609 9.42177 0.638609C9.96179 0.649795 10.496 0.753114 11.0013 0.944109C11.4365 1.10282 11.8299 1.35844 12.1518 1.69161C12.4833 2.01614 12.7405 2.40865 12.9058 2.84211C13.0912 3.34872 13.1921 3.8823 13.2048 4.42161C13.2438 5.11061 13.2438 5.33161 13.2438 7.09961C13.2438 8.1881 13.229 8.69022 13.2176 9.07618C13.2105 9.31712 13.2048 9.5128 13.2048 9.77761C13.1921 10.3169 13.0912 10.8505 12.9058 11.3571ZM4.39473 9.45972C3.92813 8.99406 3.61004 8.40051 3.48064 7.75412C3.35124 7.10771 3.41635 6.43746 3.66774 5.82804C3.91912 5.21864 4.3455 4.69741 4.893 4.33023C5.4405 3.96305 6.08455 3.76639 6.74377 3.76511C7.18246 3.76339 7.61714 3.84843 8.02284 4.01532C8.21281 4.09346 8.39465 4.18882 8.56622 4.29996C8.76071 4.42595 8.94199 4.57222 9.10688 4.73664C9.10688 4.73665 9.10687 4.73663 9.10688 4.73664C9.10717 4.73693 9.10749 4.73725 9.10778 4.73754C9.27292 4.90239 9.41988 5.08374 9.54651 5.27841C9.65793 5.4497 9.7536 5.6313 9.83206 5.82103C9.99975 6.22641 10.0856 6.66093 10.0848 7.09961C10.0848 7.75883 9.88934 8.40327 9.52326 8.9515C9.15718 9.49967 8.63675 9.92711 8.02783 10.1797C7.41891 10.4322 6.74878 10.4987 6.10213 10.3705C5.45548 10.2424 4.86132 9.92546 4.39473 9.45972ZM10.3703 3.47297C10.3702 3.47293 10.3703 3.473 10.3703 3.47297ZM10.3703 3.47297L10.2148 3.62847L10.4181 3.71269C10.4292 3.68586 10.4348 3.65728 10.4348 3.62861C10.4348 3.6143 10.4334 3.59998 10.4306 3.58583C10.4221 3.54315 10.401 3.50379 10.3703 3.47297ZM10.2148 3.62847L10.4181 3.71269C10.4125 3.72611 10.4057 3.73889 10.3977 3.75082C10.3977 3.75081 10.3977 3.75082 10.3977 3.75082C10.3817 3.77477 10.3611 3.79543 10.337 3.81151C10.325 3.81956 10.3123 3.82636 10.299 3.83185C10.299 3.83183 10.299 3.83186 10.299 3.83185C10.2725 3.84283 10.2438 3.84861 10.2148 3.84861C10.2002 3.84861 10.1859 3.84717 10.1718 3.84438L10.2148 3.62847ZM10.0592 3.78412C10.0592 3.78415 10.0591 3.7841 10.0592 3.78412ZM10.2148 3.62847L10.0592 3.78412C10.0901 3.81506 10.1295 3.83595 10.1718 3.84438L10.2148 3.62847ZM10.0592 3.78412L10.2148 3.62847L10.0115 3.54437C10.0005 3.57093 9.99477 3.59954 9.99477 3.62861C9.99477 3.64315 9.99622 3.65755 9.99902 3.67161C10.0075 3.71388 10.0282 3.75314 10.0592 3.78412ZM10.0115 3.54437L10.2148 3.62847L10.2576 3.41283C10.2435 3.41001 10.2291 3.40861 10.2148 3.40861C10.1861 3.40861 10.1575 3.41421 10.1307 3.42532C10.1306 3.42535 10.1307 3.42529 10.1307 3.42532C10.1173 3.43085 10.1045 3.43774 10.0926 3.44567C10.0926 3.44567 10.0926 3.44566 10.0926 3.44567C10.0686 3.46168 10.0479 3.4823 10.0318 3.50637M10.2148 3.62847L10.2576 3.41283C10.3004 3.42134 10.3397 3.44239 10.3703 3.47297L10.2148 3.62847ZM10.0115 3.54437C10.017 3.53113 10.0238 3.51839 10.0318 3.50637ZM5.54124 8.89933C5.8972 9.13714 6.31568 9.26411 6.74377 9.26411C7.02802 9.26411 7.30948 9.20812 7.57209 9.09936C7.8347 8.99059 8.07332 8.83113 8.27431 8.63014C8.4753 8.42915 8.63475 8.19054 8.74352 7.92793C8.85229 7.66532 8.90827 7.38386 8.90827 7.09961C8.90827 6.67151 8.78131 6.25303 8.54349 5.89707C8.30566 5.54113 7.9676 5.2637 7.57209 5.09987C7.17658 4.93605 6.74137 4.89318 6.3215 4.9767C5.90163 5.06022 5.51595 5.26637 5.21324 5.56908C4.91053 5.87179 4.70439 6.25746 4.62087 6.67733C4.53734 7.09721 4.58021 7.53241 4.74404 7.92793C4.90786 8.32344 5.18529 8.66149 5.54124 8.89933Z" fill="#B29FBC"/>
</svg>
