<svg width="14" height="13" viewBox="0 0 14 13" fill="none" xmlns="http://www.w3.org/2000/svg">
<path d="M5.98695 7.84137L2.37503 11.8999H1.62681L5.75938 7.25508L6.03595 6.94423L5.78053 6.61578L1.26637 0.811035H4.30116L7.12221 4.47874L7.49054 4.95762L7.8921 4.50623L11.1794 0.811035H11.9262L8.11078 5.09941L7.8357 5.40858L8.08801 5.73661L12.8287 11.8999H9.89199L6.75513 7.8668L6.38632 7.39261L5.98695 7.84137ZM9.82835 11.4794L9.97849 11.6724H10.223H11.3786H12.3939L11.7749 10.8676L4.31581 1.16922L4.1657 0.974048H3.91948H2.67944H1.65709L2.28478 1.78103L9.82835 11.4794Z" fill="#B29FBC" stroke="#B29FBC"/>
</svg>
