<svg width="70" height="70" viewBox="0 0 70 70" fill="none" xmlns="http://www.w3.org/2000/svg">
<path d="M2.91675 61.2503V44.917C2.91675 41.051 6.05075 37.917 9.91674 37.917H36.7501C40.6161 37.917 43.7501 41.051 43.7501 44.917V61.2503" stroke="#351C42" stroke-linecap="round"/>
<path d="M37.9167 38.0005V36.167C37.9167 32.301 41.0507 29.167 44.9167 29.167H60.0834C63.9494 29.167 67.0834 32.301 67.0834 36.167V45.2087" stroke="#351C42" stroke-linecap="round"/>
<path d="M23.3334 37.9151C29.7767 37.9151 35.0001 32.6918 35.0001 26.2485C35.0001 19.8051 29.7767 14.5818 23.3334 14.5818C16.8901 14.5818 11.6667 19.8051 11.6667 26.2485C11.6667 32.6918 16.8901 37.9151 23.3334 37.9151Z" stroke="#351C42" stroke-linecap="round" stroke-linejoin="round"/>
<path d="M52.5 29.167C57.3325 29.167 61.25 25.2495 61.25 20.417C61.25 15.5845 57.3325 11.667 52.5 11.667C47.6675 11.667 43.75 15.5845 43.75 20.417C43.75 25.2495 47.6675 29.167 52.5 29.167Z" stroke="#351C42" stroke-linecap="round" stroke-linejoin="round"/>
</svg>
