<svg width="50" height="50" viewBox="0 0 50 50" fill="none" xmlns="http://www.w3.org/2000/svg">
<path d="M7.99994 32.3788C7.99994 33.5188 9.83339 34.4429 12.0951 34.4429C13.0172 34.4429 13.8681 34.2893 14.5526 34.0301" stroke="#351C42" stroke-width="0.8" stroke-linecap="round" stroke-linejoin="round"/>
<path d="M7.99994 29.0614C7.99994 30.2014 9.83339 31.1255 12.0951 31.1255C13.0172 31.1255 13.8681 30.9719 14.5526 30.7127" stroke="#351C42" stroke-width="0.8" stroke-linecap="round" stroke-linejoin="round"/>
<path d="M8.00003 35.2686C8.00003 36.4085 9.83349 37.3326 12.0952 37.3326C13.0171 37.3326 13.8678 37.1791 14.5522 36.92" stroke="#351C42" stroke-width="0.8" stroke-linecap="round" stroke-linejoin="round"/>
<path d="M8.00002 25.5522V37.5534C8.00002 39.0598 9.84166 40.2809 12.1134 40.2809C13.0395 40.2809 13.894 40.0779 14.5815 39.7354" stroke="#351C42" stroke-width="0.8" stroke-linecap="round" stroke-linejoin="round"/>
<path d="M16.1902 28.295V25.8181" stroke="#351C42" stroke-width="0.8" stroke-linecap="round" stroke-linejoin="round"/>
<path d="M18.6474 32.0692C16.3857 32.0692 14.5522 31.1451 14.5522 30.0051C14.5522 28.8652 16.3857 27.941 18.6474 27.941C20.909 27.941 22.7425 28.8652 22.7425 30.0051C22.7425 31.1451 20.909 32.0692 18.6474 32.0692Z" stroke="#351C42" stroke-width="0.8" stroke-linecap="round" stroke-linejoin="round"/>
<path d="M14.5522 36.5071C14.5522 37.6471 16.3857 38.5712 18.6474 38.5712C20.909 38.5712 22.7425 37.6471 22.7425 36.5071" stroke="#351C42" stroke-width="0.8" stroke-linecap="round" stroke-linejoin="round"/>
<path d="M14.5522 33.4551C14.5522 34.595 16.3857 35.5192 18.6474 35.5192C20.909 35.5192 22.7425 34.595 22.7425 33.4551" stroke="#351C42" stroke-width="0.8" stroke-linecap="round" stroke-linejoin="round"/>
<path d="M14.5815 30.3298V39.1253C14.5815 40.6434 16.4084 41.8739 18.662 41.8739C20.9156 41.8739 22.7425 40.6434 22.7425 39.1253V30.3298" stroke="#351C42" stroke-width="0.8" stroke-linecap="round" stroke-linejoin="round"/>
<path d="M12.0951 27.6904C9.83337 27.6904 7.99992 26.7663 7.99992 25.6263C7.99992 24.4864 9.83337 23.5623 12.0951 23.5623C14.3567 23.5623 16.1902 24.4864 16.1902 25.6263C16.1902 26.7663 14.3567 27.6904 12.0951 27.6904Z" stroke="#351C42" stroke-width="0.8" stroke-linecap="round" stroke-linejoin="round"/>
<path d="M22.8741 38.8219H34.5291C38.0513 38.8219 40.9067 35.9666 40.9067 32.4443V32.4443C41.234 26.8343 41.234 20.5643 31.43 16.5299M31.43 16.5299C33.1412 16.0062 33.3721 13.8665 33.6679 12.2174M31.43 16.5299C38.1431 18.2877 35.5106 13.6549 33.6679 12.2174M31.43 16.5299C30.6979 16.7539 29.3003 17.0314 27.7444 17.028M24.5195 16.5299C19.3009 19.2443 17.3368 22.2143 17.3368 27.8243M24.5195 16.5299C23.5542 15.402 21.8079 12.4828 22.545 9.82896C22.8741 9.39742 24.0588 10.9897 24.7169 11.1559C25.6435 11.3898 26.0538 10.9782 26.9546 10.1607C27.9418 9.26473 29.1923 9.59645 29.9163 10.9568C30.5293 12.1086 31.7591 11.3549 33.1412 10.1607C33.7949 9.59589 33.9333 10.7376 33.6679 12.2174M24.5195 16.5299C25.5619 16.8944 26.6895 17.0258 27.7444 17.028M25.6383 12.9472C25.8797 14.186 26.6387 16.7366 27.7444 17.028M27.7444 17.028C29.4293 16.312 30.2015 14.0091 30.377 12.9472" stroke="#351C42" stroke-width="0.8"/>
<path d="M30.6403 25.0957C30.0392 24.4804 28.9806 24.0525 28.0077 24.0257M25.3751 30.9341C25.9407 31.706 26.9922 32.1462 28.0077 32.1835M28.0077 24.0257C26.8501 23.9938 25.8139 24.5298 25.8139 25.9939C25.8139 28.6886 30.6403 27.3413 30.6403 30.0359C30.6403 31.5728 29.3557 32.2331 28.0077 32.1835M28.0077 24.0257V22.4011M28.0077 32.1835V34.0779" stroke="#351C42" stroke-width="0.8" stroke-linecap="round" stroke-linejoin="round"/>
</svg>
