<svg width="50" height="50" viewBox="0 0 50 50" fill="none" xmlns="http://www.w3.org/2000/svg">
<path d="M17.37 11.7845L25 7.45979L32.63 11.7845L32.6328 11.786L40.1903 16.2299L40.26 24.9968V25.0032L40.1903 33.7701L32.6328 38.214L32.6273 38.2171L25 42.5402L17.3727 38.2171L17.37 38.2155L9.80973 33.7701L9.74001 25L9.80973 16.2299L17.37 11.7845Z" stroke="#351C42" stroke-width="0.8"/>
<path d="M35.5218 30.4699V29.5176C35.5218 26.3 32.9133 23.6915 29.6957 23.6915V23.6915" stroke="#351C42" stroke-width="0.8" stroke-linecap="round" stroke-linejoin="round"/>
<path d="M26.2175 19.8785C26.2175 18.1341 28.1306 16.913 29.6088 16.913C31.4749 16.913 32.9877 18.4304 32.9877 20.3021C32.9877 22.1739 31.4749 23.6913 29.6088 23.6913C29.29 23.6913 28.6175 23.6913 28.4784 23.6913" stroke="#351C42" stroke-width="0.8" stroke-linecap="round" stroke-linejoin="round"/>
<path d="M19.1741 33.2608V32.3955C19.1741 29.1298 21.8214 26.4824 25.0871 26.4824V26.4824C28.3528 26.4824 31.0002 29.1298 31.0002 32.3955V33.2608" stroke="#351C42" stroke-width="0.8" stroke-linecap="round" stroke-linejoin="round"/>
<path d="M25.0871 26.4833C26.9532 26.4833 28.466 24.9659 28.466 23.0941C28.466 21.2223 26.9532 19.7049 25.0871 19.7049C23.221 19.7049 21.7082 21.2223 21.7082 23.0941C21.7082 24.9659 23.221 26.4833 25.0871 26.4833Z" stroke="#351C42" stroke-width="0.8" stroke-linecap="round" stroke-linejoin="round"/>
<path d="M14.4784 30.4704V29.1949C14.4784 26.1213 16.97 23.6297 20.0436 23.6297V23.6297" stroke="#351C42" stroke-width="0.8" stroke-linecap="round" stroke-linejoin="round"/>
<path d="M23.6957 19.9657C23.6957 18.3957 22.2575 16.913 20.3914 16.913C18.5253 16.913 17.0125 18.4304 17.0125 20.3021C17.0125 22.1739 18.5653 24.1524 21.6957 23.5418" stroke="#351C42" stroke-width="0.8" stroke-linecap="round" stroke-linejoin="round"/>
</svg>
